STARTFONT 2.1
FONT -FontForge-Monaco-Medium-R-Normal--12-120-72-72-P-59-ISO10646-1
SIZE 12 72 72
FONTBOUNDINGBOX 8 13 0 -2
COMMENT "Generated by fontforge, http://fontforge.sourceforge.net"
STARTPROPERTIES 23
FOUNDRY "FontForge"
FAMILY_NAME "Monaco"
WEIGHT_NAME "Medium"
SLANT "R"
SETWIDTH_NAME "Normal"
ADD_STYLE_NAME ""
PIXEL_SIZE 12
POINT_SIZE 120
RESOLUTION_X 72
RESOLUTION_Y 72
SPACING "P"
AVERAGE_WIDTH 60
CHARSET_REGISTRY "ISO10646"
CHARSET_ENCODING "1"
FONTNAME_REGISTRY ""
CHARSET_COLLECTIONS "ISO8859-5 ISO10646-1"
FONT_NAME "Monaco"
FACE_NAME "Monaco"
FONT_VERSION "001.000"
FONT_ASCENT 10
FONT_DESCENT 2
X_HEIGHT 10
CAP_HEIGHT 7
ENDPROPERTIES
CHARS 277
STARTCHAR space
ENCODING 32
SWIDTH 666 0
DWIDTH 8 0
BBX 1 1 2 0
BITMAP
00
ENDCHAR
STARTCHAR exclam
ENCODING 33
SWIDTH 666 0
DWIDTH 8 0
BBX 1 8 2 0
BITMAP
80
80
80
80
80
80
00
80
ENDCHAR
STARTCHAR quotedbl
ENCODING 34
SWIDTH 666 0
DWIDTH 8 0
BBX 3 3 2 5
BITMAP
A0
A0
A0
ENDCHAR
STARTCHAR numbersign
ENCODING 35
SWIDTH 666 0
DWIDTH 8 0
BBX 7 8 0 0
BITMAP
14
14
FE
28
28
FE
50
50
ENDCHAR
STARTCHAR dollar
ENCODING 36
SWIDTH 666 0
DWIDTH 8 0
BBX 6 10 0 -1
BITMAP
08
78
94
90
78
24
24
A4
78
40
ENDCHAR
STARTCHAR percent
ENCODING 37
SWIDTH 666 0
DWIDTH 8 0
BBX 8 8 0 0
BITMAP
61
92
94
68
16
29
49
86
ENDCHAR
STARTCHAR ampersand
ENCODING 38
SWIDTH 666 0
DWIDTH 8 0
BBX 7 8 0 0
BITMAP
70
88
C0
60
90
8A
84
7A
ENDCHAR
STARTCHAR quotesingle
ENCODING 39
SWIDTH 666 0
DWIDTH 8 0
BBX 1 3 3 5
BITMAP
80
80
80
ENDCHAR
STARTCHAR parenleft
ENCODING 40
SWIDTH 666 0
DWIDTH 8 0
BBX 3 11 2 -2
BITMAP
20
40
40
80
80
80
80
80
40
40
20
ENDCHAR
STARTCHAR parenright
ENCODING 41
SWIDTH 666 0
DWIDTH 8 0
BBX 3 11 1 -2
BITMAP
80
40
40
20
20
20
20
20
40
40
80
ENDCHAR
STARTCHAR asterisk
ENCODING 42
SWIDTH 666 0
DWIDTH 8 0
BBX 5 5 1 1
BITMAP
20
A8
70
A8
20
ENDCHAR
STARTCHAR plus
ENCODING 43
SWIDTH 666 0
DWIDTH 8 0
BBX 7 7 0 0
BITMAP
10
10
10
FE
10
10
10
ENDCHAR
STARTCHAR comma
ENCODING 44
SWIDTH 666 0
DWIDTH 8 0
BBX 3 4 1 -2
BITMAP
60
60
20
C0
ENDCHAR
STARTCHAR hyphen
ENCODING 45
SWIDTH 666 0
DWIDTH 8 0
BBX 7 1 0 3
BITMAP
FE
ENDCHAR
STARTCHAR period
ENCODING 46
SWIDTH 666 0
DWIDTH 8 0
BBX 2 2 2 0
BITMAP
C0
C0
ENDCHAR
STARTCHAR slash
ENCODING 47
SWIDTH 666 0
DWIDTH 8 0
BBX 5 10 1 -1
BITMAP
08
08
10
10
20
20
40
40
80
80
ENDCHAR
STARTCHAR zero
ENCODING 48
SWIDTH 666 0
DWIDTH 8 0
BBX 6 8 0 0
BITMAP
78
84
8C
94
A4
C4
84
78
ENDCHAR
STARTCHAR one
ENCODING 49
SWIDTH 666 0
DWIDTH 8 0
BBX 5 8 0 0
BITMAP
20
60
A0
20
20
20
20
F8
ENDCHAR
STARTCHAR two
ENCODING 50
SWIDTH 666 0
DWIDTH 8 0
BBX 6 8 0 0
BITMAP
78
84
04
08
10
20
40
FC
ENDCHAR
STARTCHAR three
ENCODING 51
SWIDTH 666 0
DWIDTH 8 0
BBX 6 8 0 0
BITMAP
78
84
04
18
04
04
84
78
ENDCHAR
STARTCHAR four
ENCODING 52
SWIDTH 666 0
DWIDTH 8 0
BBX 6 8 0 0
BITMAP
08
18
28
48
88
FC
08
08
ENDCHAR
STARTCHAR five
ENCODING 53
SWIDTH 666 0
DWIDTH 8 0
BBX 5 8 0 0
BITMAP
F8
80
80
F0
08
08
08
F0
ENDCHAR
STARTCHAR six
ENCODING 54
SWIDTH 666 0
DWIDTH 8 0
BBX 6 8 0 0
BITMAP
78
84
80
F8
84
84
84
78
ENDCHAR
STARTCHAR seven
ENCODING 55
SWIDTH 666 0
DWIDTH 8 0
BBX 6 8 0 0
BITMAP
FC
84
04
08
10
20
20
20
ENDCHAR
STARTCHAR eight
ENCODING 56
SWIDTH 666 0
DWIDTH 8 0
BBX 6 8 0 0
BITMAP
78
84
84
78
84
84
84
78
ENDCHAR
STARTCHAR nine
ENCODING 57
SWIDTH 666 0
DWIDTH 8 0
BBX 6 9 0 -1
BITMAP
78
84
84
84
84
78
10
20
40
ENDCHAR
STARTCHAR colon
ENCODING 58
SWIDTH 666 0
DWIDTH 8 0
BBX 2 6 2 0
BITMAP
C0
C0
00
00
C0
C0
ENDCHAR
STARTCHAR semicolon
ENCODING 59
SWIDTH 667 0
DWIDTH 8 0
BBX 3 8 1 -2
BITMAP
60
60
00
00
60
60
20
C0
ENDCHAR
STARTCHAR less
ENCODING 60
SWIDTH 666 0
DWIDTH 8 0
BBX 7 7 0 0
BITMAP
02
0C
30
C0
30
0C
02
ENDCHAR
STARTCHAR equal
ENCODING 61
SWIDTH 666 0
DWIDTH 8 0
BBX 6 3 1 2
BITMAP
FC
00
FC
ENDCHAR
STARTCHAR greater
ENCODING 62
SWIDTH 666 0
DWIDTH 8 0
BBX 7 7 0 0
BITMAP
80
60
18
06
18
60
80
ENDCHAR
STARTCHAR question
ENCODING 63
SWIDTH 666 0
DWIDTH 8 0
BBX 6 8 0 0
BITMAP
78
84
04
18
20
20
00
20
ENDCHAR
STARTCHAR at
ENCODING 64
SWIDTH 666 0
DWIDTH 8 0
BBX 7 8 0 -1
BITMAP
3C
42
9A
A6
A2
9E
40
3E
ENDCHAR
STARTCHAR A
ENCODING 65
SWIDTH 666 0
DWIDTH 8 0
BBX 7 8 0 0
BITMAP
10
28
28
44
44
FE
82
82
ENDCHAR
STARTCHAR B
ENCODING 66
SWIDTH 666 0
DWIDTH 8 0
BBX 6 8 0 0
BITMAP
F8
84
84
F8
84
84
84
F8
ENDCHAR
STARTCHAR C
ENCODING 67
SWIDTH 666 0
DWIDTH 8 0
BBX 7 8 0 0
BITMAP
7C
82
80
80
80
80
82
7C
ENDCHAR
STARTCHAR D
ENCODING 68
SWIDTH 666 0
DWIDTH 8 0
BBX 7 8 0 0
BITMAP
F8
84
82
82
82
82
84
F8
ENDCHAR
STARTCHAR E
ENCODING 69
SWIDTH 666 0
DWIDTH 8 0
BBX 6 8 0 0
BITMAP
FC
80
80
F0
80
80
80
FC
ENDCHAR
STARTCHAR F
ENCODING 70
SWIDTH 666 0
DWIDTH 8 0
BBX 6 8 0 0
BITMAP
FC
80
80
F8
80
80
80
80
ENDCHAR
STARTCHAR G
ENCODING 71
SWIDTH 666 0
DWIDTH 8 0
BBX 6 8 0 0
BITMAP
78
84
80
80
9C
84
84
78
ENDCHAR
STARTCHAR H
ENCODING 72
SWIDTH 666 0
DWIDTH 8 0
BBX 6 8 0 0
BITMAP
84
84
84
FC
84
84
84
84
ENDCHAR
STARTCHAR I
ENCODING 73
SWIDTH 666 0
DWIDTH 8 0
BBX 5 8 1 0
BITMAP
F8
20
20
20
20
20
20
F8
ENDCHAR
STARTCHAR J
ENCODING 74
SWIDTH 666 0
DWIDTH 8 0
BBX 6 8 0 0
BITMAP
1C
04
04
04
04
84
84
78
ENDCHAR
STARTCHAR K
ENCODING 75
SWIDTH 666 0
DWIDTH 8 0
BBX 6 8 0 0
BITMAP
84
88
90
E0
E0
90
88
84
ENDCHAR
STARTCHAR L
ENCODING 76
SWIDTH 666 0
DWIDTH 8 0
BBX 6 8 0 0
BITMAP
80
80
80
80
80
80
80
FC
ENDCHAR
STARTCHAR M
ENCODING 77
SWIDTH 666 0
DWIDTH 8 0
BBX 7 8 0 0
BITMAP
82
C6
AA
92
82
82
82
82
ENDCHAR
STARTCHAR N
ENCODING 78
SWIDTH 666 0
DWIDTH 8 0
BBX 6 8 0 0
BITMAP
84
84
C4
A4
94
8C
84
84
ENDCHAR
STARTCHAR O
ENCODING 79
SWIDTH 666 0
DWIDTH 8 0
BBX 6 8 0 0
BITMAP
78
84
84
84
84
84
84
78
ENDCHAR
STARTCHAR P
ENCODING 80
SWIDTH 666 0
DWIDTH 8 0
BBX 6 8 0 0
BITMAP
F8
84
84
84
84
F8
80
80
ENDCHAR
STARTCHAR Q
ENCODING 81
SWIDTH 666 0
DWIDTH 8 0
BBX 6 10 0 -2
BITMAP
78
84
84
84
84
84
84
78
20
18
ENDCHAR
STARTCHAR R
ENCODING 82
SWIDTH 666 0
DWIDTH 8 0
BBX 6 8 0 0
BITMAP
F8
84
84
84
F8
A0
98
84
ENDCHAR
STARTCHAR S
ENCODING 83
SWIDTH 666 0
DWIDTH 8 0
BBX 6 8 0 0
BITMAP
78
84
80
78
04
04
84
78
ENDCHAR
STARTCHAR T
ENCODING 84
SWIDTH 666 0
DWIDTH 8 0
BBX 7 8 0 0
BITMAP
FE
10
10
10
10
10
10
10
ENDCHAR
STARTCHAR U
ENCODING 85
SWIDTH 666 0
DWIDTH 8 0
BBX 6 8 0 0
BITMAP
84
84
84
84
84
84
84
78
ENDCHAR
STARTCHAR V
ENCODING 86
SWIDTH 666 0
DWIDTH 8 0
BBX 6 8 0 0
BITMAP
84
84
84
84
48
48
30
30
ENDCHAR
STARTCHAR W
ENCODING 87
SWIDTH 666 0
DWIDTH 8 0
BBX 7 8 0 0
BITMAP
82
82
92
92
92
7C
54
54
ENDCHAR
STARTCHAR X
ENCODING 88
SWIDTH 666 0
DWIDTH 8 0
BBX 6 8 0 0
BITMAP
84
84
48
30
30
48
84
84
ENDCHAR
STARTCHAR Y
ENCODING 89
SWIDTH 666 0
DWIDTH 8 0
BBX 7 8 0 0
BITMAP
82
82
44
28
10
10
10
10
ENDCHAR
STARTCHAR Z
ENCODING 90
SWIDTH 666 0
DWIDTH 8 0
BBX 6 8 0 0
BITMAP
FC
04
08
10
20
40
80
FC
ENDCHAR
STARTCHAR bracketleft
ENCODING 91
SWIDTH 666 0
DWIDTH 8 0
BBX 3 11 2 -2
BITMAP
E0
80
80
80
80
80
80
80
80
80
E0
ENDCHAR
STARTCHAR backslash
ENCODING 92
SWIDTH 666 0
DWIDTH 8 0
BBX 5 10 1 -1
BITMAP
80
80
40
40
20
20
10
10
08
08
ENDCHAR
STARTCHAR bracketright
ENCODING 93
SWIDTH 666 0
DWIDTH 8 0
BBX 3 11 2 -2
BITMAP
E0
20
20
20
20
20
20
20
20
20
E0
ENDCHAR
STARTCHAR asciicircum
ENCODING 94
SWIDTH 666 0
DWIDTH 8 0
BBX 7 6 0 3
BITMAP
10
28
28
44
44
82
ENDCHAR
STARTCHAR underscore
ENCODING 95
SWIDTH 666 0
DWIDTH 8 0
BBX 6 1 0 0
BITMAP
FC
ENDCHAR
STARTCHAR grave
ENCODING 96
SWIDTH 666 0
DWIDTH 8 0
BBX 2 2 2 5
BITMAP
80
40
ENDCHAR
STARTCHAR a
ENCODING 97
SWIDTH 666 0
DWIDTH 8 0
BBX 7 6 0 0
BITMAP
78
84
7C
84
84
7A
ENDCHAR
STARTCHAR b
ENCODING 98
SWIDTH 666 0
DWIDTH 8 0
BBX 6 9 0 0
BITMAP
80
80
80
B8
C4
84
84
84
F8
ENDCHAR
STARTCHAR c
ENCODING 99
SWIDTH 666 0
DWIDTH 8 0
BBX 6 6 0 0
BITMAP
78
84
80
80
84
78
ENDCHAR
STARTCHAR d
ENCODING 100
SWIDTH 666 0
DWIDTH 8 0
BBX 6 9 0 0
BITMAP
04
04
04
7C
84
84
84
8C
74
ENDCHAR
STARTCHAR e
ENCODING 101
SWIDTH 666 0
DWIDTH 8 0
BBX 6 6 0 0
BITMAP
78
84
FC
80
84
78
ENDCHAR
STARTCHAR f
ENCODING 102
SWIDTH 666 0
DWIDTH 8 0
BBX 5 8 1 0
BITMAP
38
40
F8
40
40
40
40
40
ENDCHAR
STARTCHAR g
ENCODING 103
SWIDTH 666 0
DWIDTH 8 0
BBX 6 8 0 -2
BITMAP
7C
84
84
84
8C
74
04
78
ENDCHAR
STARTCHAR h
ENCODING 104
SWIDTH 666 0
DWIDTH 8 0
BBX 6 8 0 0
BITMAP
80
80
B8
C4
84
84
84
84
ENDCHAR
STARTCHAR i
ENCODING 105
SWIDTH 666 0
DWIDTH 8 0
BBX 4 9 1 0
BITMAP
40
40
00
C0
40
40
40
50
60
ENDCHAR
STARTCHAR j
ENCODING 106
SWIDTH 666 0
DWIDTH 8 0
BBX 3 11 1 -2
BITMAP
20
20
00
60
20
20
20
20
20
A0
40
ENDCHAR
STARTCHAR k
ENCODING 107
SWIDTH 666 0
DWIDTH 8 0
BBX 6 9 0 0
BITMAP
80
80
80
88
90
E0
90
88
84
ENDCHAR
STARTCHAR l
ENCODING 108
SWIDTH 666 0
DWIDTH 8 0
BBX 4 9 1 0
BITMAP
C0
40
40
40
40
40
40
40
30
ENDCHAR
STARTCHAR m
ENCODING 109
SWIDTH 666 0
DWIDTH 8 0
BBX 7 6 0 0
BITMAP
EC
92
92
92
92
92
ENDCHAR
STARTCHAR n
ENCODING 110
SWIDTH 666 0
DWIDTH 8 0
BBX 6 6 0 0
BITMAP
B8
C4
84
84
84
84
ENDCHAR
STARTCHAR o
ENCODING 111
SWIDTH 666 0
DWIDTH 8 0
BBX 6 6 0 0
BITMAP
78
84
84
84
84
78
ENDCHAR
STARTCHAR p
ENCODING 112
SWIDTH 666 0
DWIDTH 8 0
BBX 6 8 0 -2
BITMAP
B8
C4
84
84
84
F8
80
80
ENDCHAR
STARTCHAR q
ENCODING 113
SWIDTH 666 0
DWIDTH 8 0
BBX 6 8 0 -2
BITMAP
74
8C
84
84
8C
74
04
04
ENDCHAR
STARTCHAR r
ENCODING 114
SWIDTH 666 0
DWIDTH 8 0
BBX 6 6 0 0
BITMAP
D8
64
40
40
40
E0
ENDCHAR
STARTCHAR s
ENCODING 115
SWIDTH 666 0
DWIDTH 8 0
BBX 6 6 0 0
BITMAP
78
84
60
18
84
78
ENDCHAR
STARTCHAR t
ENCODING 116
SWIDTH 666 0
DWIDTH 8 0
BBX 6 8 0 0
BITMAP
20
20
F8
20
20
20
24
18
ENDCHAR
STARTCHAR u
ENCODING 117
SWIDTH 666 0
DWIDTH 8 0
BBX 6 6 0 0
BITMAP
84
84
84
84
8C
74
ENDCHAR
STARTCHAR v
ENCODING 118
SWIDTH 666 0
DWIDTH 8 0
BBX 6 6 0 0
BITMAP
84
84
48
48
30
30
ENDCHAR
STARTCHAR w
ENCODING 119
SWIDTH 666 0
DWIDTH 8 0
BBX 7 6 0 0
BITMAP
82
82
92
92
7C
54
ENDCHAR
STARTCHAR x
ENCODING 120
SWIDTH 666 0
DWIDTH 8 0
BBX 6 6 0 0
BITMAP
84
48
30
30
48
84
ENDCHAR
STARTCHAR y
ENCODING 121
SWIDTH 666 0
DWIDTH 8 0
BBX 6 8 0 -2
BITMAP
84
44
48
28
10
20
40
80
ENDCHAR
STARTCHAR z
ENCODING 122
SWIDTH 666 0
DWIDTH 8 0
BBX 6 6 0 0
BITMAP
FC
08
10
20
40
FC
ENDCHAR
STARTCHAR braceleft
ENCODING 123
SWIDTH 666 0
DWIDTH 8 0
BBX 4 11 1 -2
BITMAP
10
20
20
20
20
C0
20
20
20
20
10
ENDCHAR
STARTCHAR bar
ENCODING 124
SWIDTH 666 0
DWIDTH 8 0
BBX 1 11 3 -2
BITMAP
80
80
80
80
80
80
80
80
80
80
80
ENDCHAR
STARTCHAR braceright
ENCODING 125
SWIDTH 666 0
DWIDTH 8 0
BBX 4 11 2 -2
BITMAP
80
40
40
40
40
30
40
40
40
40
80
ENDCHAR
STARTCHAR asciitilde
ENCODING 126
SWIDTH 666 0
DWIDTH 8 0
BBX 7 3 0 2
BITMAP
62
92
8C
ENDCHAR
STARTCHAR guillemotleft
ENCODING 171
SWIDTH 666 0
DWIDTH 8 0
BBX 6 7 0 0
BITMAP
14
28
50
A0
50
28
14
ENDCHAR
STARTCHAR plusminus
ENCODING 177
SWIDTH 666 0
DWIDTH 8 0
BBX 7 7 0 -1
BITMAP
10
10
FE
10
10
00
FE
ENDCHAR
STARTCHAR paragraph
ENCODING 182
SWIDTH 666 0
DWIDTH 8 0
BBX 7 10 0 -1
BITMAP
7E
94
94
94
74
14
14
14
14
3E
ENDCHAR
STARTCHAR periodcentered
ENCODING 183
SWIDTH 666 0
DWIDTH 8 0
BBX 2 2 3 3
BITMAP
C0
C0
ENDCHAR
STARTCHAR guillemotright
ENCODING 187
SWIDTH 666 0
DWIDTH 8 0
BBX 6 7 1 0
BITMAP
A0
50
28
14
28
50
A0
ENDCHAR
STARTCHAR onehalf
ENCODING 189
SWIDTH 666 0
DWIDTH 8 0
BBX 7 8 0 0
BITMAP
44
C8
48
F0
1E
22
24
4E
ENDCHAR
STARTCHAR divide
ENCODING 247
SWIDTH 666 0
DWIDTH 8 0
BBX 7 7 0 0
BITMAP
10
10
00
FE
00
10
10
ENDCHAR
STARTCHAR ycircumflex
ENCODING 375
SWIDTH 666 0
DWIDTH 8 0
BBX 8 12 0 -2
BITMAP
18
24
00
81
81
81
81
7F
01
81
81
7E
ENDCHAR
STARTCHAR Alpha
ENCODING 913
SWIDTH 666 0
DWIDTH 8 0
BBX 7 8 0 0
BITMAP
10
28
44
44
7C
44
44
EE
ENDCHAR
STARTCHAR Beta
ENCODING 914
SWIDTH 666 0
DWIDTH 8 0
BBX 6 8 1 0
BITMAP
F0
48
48
78
44
44
44
F8
ENDCHAR
STARTCHAR Gamma
ENCODING 915
SWIDTH 666 0
DWIDTH 8 0
BBX 6 8 1 0
BITMAP
FC
44
40
40
40
40
40
E0
ENDCHAR
STARTCHAR Delta
ENCODING 916
SWIDTH 666 0
DWIDTH 8 0
BBX 7 8 0 0
BITMAP
10
28
28
44
44
82
82
FE
ENDCHAR
STARTCHAR Epsilon
ENCODING 917
SWIDTH 666 0
DWIDTH 8 0
BBX 6 8 1 0
BITMAP
FC
44
40
70
40
40
44
FC
ENDCHAR
STARTCHAR Zeta
ENCODING 918
SWIDTH 666 0
DWIDTH 8 0
BBX 6 8 1 0
BITMAP
FC
04
08
30
40
80
80
FC
ENDCHAR
STARTCHAR Eta
ENCODING 919
SWIDTH 666 0
DWIDTH 8 0
BBX 7 8 0 0
BITMAP
EE
44
44
7C
44
44
44
EE
ENDCHAR
STARTCHAR Theta
ENCODING 920
SWIDTH 666 0
DWIDTH 8 0
BBX 6 8 1 0
BITMAP
78
84
84
B4
84
84
84
78
ENDCHAR
STARTCHAR Iota
ENCODING 921
SWIDTH 666 0
DWIDTH 8 0
BBX 5 8 1 0
BITMAP
F8
20
20
20
20
20
20
F8
ENDCHAR
STARTCHAR Kappa
ENCODING 922
SWIDTH 666 0
DWIDTH 8 0
BBX 6 8 1 0
BITMAP
C4
48
50
60
60
50
48
C4
ENDCHAR
STARTCHAR Lambda
ENCODING 923
SWIDTH 666 0
DWIDTH 8 0
BBX 7 8 0 0
BITMAP
30
10
28
44
44
82
82
82
ENDCHAR
STARTCHAR Mu
ENCODING 924
SWIDTH 666 0
DWIDTH 8 0
BBX 7 8 0 0
BITMAP
82
C6
AA
92
92
82
82
C6
ENDCHAR
STARTCHAR Nu
ENCODING 925
SWIDTH 666 0
DWIDTH 8 0
BBX 7 8 0 0
BITMAP
CE
44
44
64
54
4C
44
E4
ENDCHAR
STARTCHAR Xi
ENCODING 926
SWIDTH 666 0
DWIDTH 8 0
BBX 7 8 0 0
BITMAP
FE
82
00
7C
00
00
82
FE
ENDCHAR
STARTCHAR Omicron
ENCODING 927
SWIDTH 666 0
DWIDTH 8 0
BBX 7 8 0 0
BITMAP
7C
82
82
82
82
82
82
7C
ENDCHAR
STARTCHAR Pi
ENCODING 928
SWIDTH 666 0
DWIDTH 8 0
BBX 7 8 0 0
BITMAP
FE
44
44
44
44
44
44
C6
ENDCHAR
STARTCHAR Rho
ENCODING 929
SWIDTH 666 0
DWIDTH 8 0
BBX 6 8 1 0
BITMAP
F8
44
44
44
F8
40
40
E0
ENDCHAR
STARTCHAR Sigma
ENCODING 931
SWIDTH 666 0
DWIDTH 8 0
BBX 7 8 0 0
BITMAP
FE
42
20
10
10
20
42
FE
ENDCHAR
STARTCHAR Tau
ENCODING 932
SWIDTH 666 0
DWIDTH 8 0
BBX 7 8 0 0
BITMAP
FE
92
10
10
10
10
10
38
ENDCHAR
STARTCHAR Upsilon
ENCODING 933
SWIDTH 666 0
DWIDTH 8 0
BBX 7 8 0 0
BITMAP
C6
82
44
28
10
10
10
38
ENDCHAR
STARTCHAR Phi
ENCODING 934
SWIDTH 666 0
DWIDTH 8 0
BBX 7 10 0 -1
BITMAP
38
10
7C
92
92
92
92
7C
10
10
ENDCHAR
STARTCHAR Chi
ENCODING 935
SWIDTH 666 0
DWIDTH 8 0
BBX 8 8 0 0
BITMAP
C2
42
24
18
18
24
42
43
ENDCHAR
STARTCHAR Psi
ENCODING 936
SWIDTH 666 0
DWIDTH 8 0
BBX 7 8 0 0
BITMAP
BA
92
92
92
92
7C
10
38
ENDCHAR
STARTCHAR Omegagreek
ENCODING 937
SWIDTH 666 0
DWIDTH 8 0
BBX 7 8 0 0
BITMAP
7C
82
82
82
82
82
44
C6
ENDCHAR
STARTCHAR alpha
ENCODING 945
SWIDTH 666 0
DWIDTH 8 0
BBX 6 7 1 0
BITMAP
04
74
88
88
88
88
74
ENDCHAR
STARTCHAR beta
ENCODING 946
SWIDTH 666 0
DWIDTH 8 0
BBX 5 11 1 -2
BITMAP
80
C0
A0
A0
F0
88
88
88
F0
80
80
ENDCHAR
STARTCHAR gamma
ENCODING 947
SWIDTH 666 0
DWIDTH 8 0
BBX 7 8 0 -2
BITMAP
C6
44
28
28
28
10
10
10
ENDCHAR
STARTCHAR delta
ENCODING 948
SWIDTH 666 0
DWIDTH 8 0
BBX 6 8 1 0
BITMAP
FC
40
20
78
84
84
84
78
ENDCHAR
STARTCHAR epsilon
ENCODING 949
SWIDTH 666 0
DWIDTH 8 0
BBX 6 6 1 0
BITMAP
78
84
60
80
88
70
ENDCHAR
STARTCHAR zeta
ENCODING 950
SWIDTH 666 0
DWIDTH 8 0
BBX 6 10 1 -2
BITMAP
FC
08
30
40
20
40
80
70
08
10
ENDCHAR
STARTCHAR eta
ENCODING 951
SWIDTH 666 0
DWIDTH 8 0
BBX 6 8 1 -2
BITMAP
F0
88
88
88
88
88
08
04
ENDCHAR
STARTCHAR theta
ENCODING 952
SWIDTH 666 0
DWIDTH 8 0
BBX 6 8 1 0
BITMAP
78
84
84
FC
84
84
84
78
ENDCHAR
STARTCHAR iota
ENCODING 953
SWIDTH 666 0
DWIDTH 8 0
BBX 4 6 2 0
BITMAP
C0
40
40
40
40
30
ENDCHAR
STARTCHAR kappa
ENCODING 954
SWIDTH 666 0
DWIDTH 8 0
BBX 4 6 2 0
BITMAP
90
A0
C0
C0
A0
90
ENDCHAR
STARTCHAR lambda
ENCODING 955
SWIDTH 666 0
DWIDTH 8 0
BBX 5 8 1 0
BITMAP
40
20
20
50
50
88
88
88
ENDCHAR
STARTCHAR mu
ENCODING 956
SWIDTH 666 0
DWIDTH 8 0
BBX 6 8 1 -2
BITMAP
84
84
84
84
8C
F4
80
80
ENDCHAR
STARTCHAR nu
ENCODING 957
SWIDTH 666 0
DWIDTH 8 0
BBX 6 6 1 0
BITMAP
C4
44
28
28
10
10
ENDCHAR
STARTCHAR xi
ENCODING 958
SWIDTH 666 0
DWIDTH 8 0
BBX 6 10 1 -2
BITMAP
78
84
80
70
80
80
80
70
08
10
ENDCHAR
STARTCHAR omicron
ENCODING 959
SWIDTH 666 0
DWIDTH 8 0
BBX 5 6 1 0
BITMAP
70
88
88
88
88
70
ENDCHAR
STARTCHAR pi
ENCODING 960
SWIDTH 666 0
DWIDTH 8 0
BBX 8 6 0 0
BITMAP
01
7E
A4
24
24
44
ENDCHAR
STARTCHAR rho
ENCODING 961
SWIDTH 666 0
DWIDTH 8 0
BBX 6 8 1 -2
BITMAP
78
84
84
84
84
F8
80
80
ENDCHAR
STARTCHAR sigma1
ENCODING 962
SWIDTH 666 0
DWIDTH 8 0
BBX 6 9 1 -2
BITMAP
04
7C
84
80
80
80
60
10
10
ENDCHAR
STARTCHAR sigma
ENCODING 963
SWIDTH 666 0
DWIDTH 8 0
BBX 7 6 1 0
BITMAP
7E
88
88
88
88
70
ENDCHAR
STARTCHAR tau
ENCODING 964
SWIDTH 666 0
DWIDTH 8 0
BBX 7 6 0 0
BITMAP
EE
10
10
10
10
0C
ENDCHAR
STARTCHAR upsilon
ENCODING 965
SWIDTH 666 0
DWIDTH 8 0
BBX 7 6 0 0
BITMAP
CE
44
44
44
44
38
ENDCHAR
STARTCHAR phi
ENCODING 966
SWIDTH 666 0
DWIDTH 8 0
BBX 7 8 0 -2
BITMAP
4C
92
92
92
92
7C
10
10
ENDCHAR
STARTCHAR chi
ENCODING 967
SWIDTH 666 0
DWIDTH 8 0
BBX 7 8 0 -2
BITMAP
C4
24
28
10
10
28
48
46
ENDCHAR
STARTCHAR psi
ENCODING 968
SWIDTH 666 0
DWIDTH 8 0
BBX 7 11 0 -2
BITMAP
10
10
D6
54
54
54
54
54
38
10
10
ENDCHAR
STARTCHAR omega
ENCODING 969
SWIDTH 666 0
DWIDTH 8 0
BBX 7 6 0 0
BITMAP
44
82
92
92
92
6C
ENDCHAR
STARTCHAR Iocyrillic
ENCODING 1025
SWIDTH 666 0
DWIDTH 8 0
BBX 6 10 1 0
BITMAP
48
00
FC
80
80
F0
80
80
80
FC
ENDCHAR
STARTCHAR Acyrillic
ENCODING 1040
SWIDTH 666 0
DWIDTH 8 0
BBX 6 8 0 0
BITMAP
78
84
84
84
FC
84
84
84
ENDCHAR
STARTCHAR Becyrillic
ENCODING 1041
SWIDTH 666 0
DWIDTH 8 0
BBX 6 8 0 0
BITMAP
F0
80
80
F8
84
84
84
F8
ENDCHAR
STARTCHAR Vecyrillic
ENCODING 1042
SWIDTH 666 0
DWIDTH 8 0
BBX 6 8 0 0
BITMAP
E0
90
90
F8
84
84
84
F8
ENDCHAR
STARTCHAR Gecyrillic
ENCODING 1043
SWIDTH 666 0
DWIDTH 8 0
BBX 6 8 0 0
BITMAP
FC
80
80
80
80
80
80
80
ENDCHAR
STARTCHAR Decyrillic
ENCODING 1044
SWIDTH 666 0
DWIDTH 8 0
BBX 8 10 0 -2
BITMAP
3E
42
42
42
42
42
42
FF
81
81
ENDCHAR
STARTCHAR Iecyrillic
ENCODING 1045
SWIDTH 666 0
DWIDTH 8 0
BBX 6 8 0 0
BITMAP
FC
80
80
F8
80
80
80
FC
ENDCHAR
STARTCHAR Zhecyrillic
ENCODING 1046
SWIDTH 666 0
DWIDTH 8 0
BBX 7 8 0 0
BITMAP
92
92
92
7C
92
92
92
92
ENDCHAR
STARTCHAR Zecyrillic
ENCODING 1047
SWIDTH 666 0
DWIDTH 8 0
BBX 6 8 0 0
BITMAP
78
84
04
38
04
04
84
78
ENDCHAR
STARTCHAR Iicyrillic
ENCODING 1048
SWIDTH 666 0
DWIDTH 8 0
BBX 6 8 0 0
BITMAP
84
84
8C
94
A4
C4
84
84
ENDCHAR
STARTCHAR Iishortcyrillic
ENCODING 1049
SWIDTH 666 0
DWIDTH 8 0
BBX 6 10 0 0
BITMAP
48
30
84
84
8C
94
A4
C4
84
84
ENDCHAR
STARTCHAR Kacyrillic
ENCODING 1050
SWIDTH 666 0
DWIDTH 8 0
BBX 6 8 0 0
BITMAP
88
90
A0
D0
90
88
88
84
ENDCHAR
STARTCHAR Elcyrillic
ENCODING 1051
SWIDTH 666 0
DWIDTH 8 0
BBX 6 8 0 0
BITMAP
3C
44
44
44
44
44
44
84
ENDCHAR
STARTCHAR Emcyrillic
ENCODING 1052
SWIDTH 666 0
DWIDTH 8 0
BBX 7 8 0 0
BITMAP
82
C6
AA
AA
92
82
82
82
ENDCHAR
STARTCHAR Encyrillic
ENCODING 1053
SWIDTH 666 0
DWIDTH 8 0
BBX 6 8 0 0
BITMAP
84
84
84
FC
84
84
84
84
ENDCHAR
STARTCHAR Ocyrillic
ENCODING 1054
SWIDTH 666 0
DWIDTH 8 0
BBX 6 8 0 0
BITMAP
78
84
84
84
84
84
84
78
ENDCHAR
STARTCHAR Pecyrillic
ENCODING 1055
SWIDTH 666 0
DWIDTH 8 0
BBX 6 8 0 0
BITMAP
FC
84
84
84
84
84
84
84
ENDCHAR
STARTCHAR Ercyrillic
ENCODING 1056
SWIDTH 666 0
DWIDTH 8 0
BBX 6 8 0 0
BITMAP
F8
84
84
84
F8
80
80
80
ENDCHAR
STARTCHAR Escyrillic
ENCODING 1057
SWIDTH 666 0
DWIDTH 8 0
BBX 6 8 0 0
BITMAP
78
84
80
80
80
80
84
78
ENDCHAR
STARTCHAR Tecyrillic
ENCODING 1058
SWIDTH 666 0
DWIDTH 8 0
BBX 7 8 0 0
BITMAP
FE
10
10
10
10
10
10
10
ENDCHAR
STARTCHAR Ucyrillic
ENCODING 1059
SWIDTH 666 0
DWIDTH 8 0
BBX 6 8 0 0
BITMAP
84
84
84
7C
04
04
84
78
ENDCHAR
STARTCHAR Efcyrillic
ENCODING 1060
SWIDTH 666 0
DWIDTH 8 0
BBX 7 9 0 0
BITMAP
10
7C
92
92
92
92
7C
10
10
ENDCHAR
STARTCHAR Khacyrillic
ENCODING 1061
SWIDTH 666 0
DWIDTH 8 0
BBX 6 8 0 0
BITMAP
84
84
48
30
30
48
84
84
ENDCHAR
STARTCHAR Tsecyrillic
ENCODING 1062
SWIDTH 666 0
DWIDTH 8 0
BBX 7 10 0 -2
BITMAP
84
84
84
84
84
84
84
FE
02
02
ENDCHAR
STARTCHAR Checyrillic
ENCODING 1063
SWIDTH 666 0
DWIDTH 8 0
BBX 6 8 0 0
BITMAP
84
84
84
84
7C
04
04
04
ENDCHAR
STARTCHAR Shacyrillic
ENCODING 1064
SWIDTH 666 0
DWIDTH 8 0
BBX 7 8 0 0
BITMAP
92
92
92
92
92
92
92
FE
ENDCHAR
STARTCHAR Shchacyrillic
ENCODING 1065
SWIDTH 666 0
DWIDTH 8 0
BBX 8 10 0 -2
BITMAP
92
92
92
92
92
92
92
FF
01
01
ENDCHAR
STARTCHAR Hardsigncyrillic
ENCODING 1066
SWIDTH 666 0
DWIDTH 8 0
BBX 7 8 0 0
BITMAP
E0
20
20
3C
22
22
22
3C
ENDCHAR
STARTCHAR Yericyrillic
ENCODING 1067
SWIDTH 666 0
DWIDTH 8 0
BBX 7 8 0 0
BITMAP
82
82
82
E2
92
92
92
E2
ENDCHAR
STARTCHAR Softsigncyrillic
ENCODING 1068
SWIDTH 666 0
DWIDTH 8 0
BBX 6 8 0 0
BITMAP
80
80
80
F8
84
84
84
F8
ENDCHAR
STARTCHAR Ereversedcyrillic
ENCODING 1069
SWIDTH 666 0
DWIDTH 8 0
BBX 6 8 0 0
BITMAP
78
84
04
3C
04
04
84
78
ENDCHAR
STARTCHAR IUcyrillic
ENCODING 1070
SWIDTH 666 0
DWIDTH 8 0
BBX 7 8 0 0
BITMAP
9C
A2
A2
E2
A2
A2
A2
9C
ENDCHAR
STARTCHAR IAcyrillic
ENCODING 1071
SWIDTH 666 0
DWIDTH 8 0
BBX 6 8 0 0
BITMAP
7C
84
84
84
7C
24
44
84
ENDCHAR
STARTCHAR acyrillic
ENCODING 1072
SWIDTH 666 0
DWIDTH 8 0
BBX 7 6 0 0
BITMAP
78
84
7C
84
84
7A
ENDCHAR
STARTCHAR becyrillic
ENCODING 1073
SWIDTH 666 0
DWIDTH 8 0
BBX 6 9 0 0
BITMAP
0C
70
80
F8
84
84
84
84
78
ENDCHAR
STARTCHAR vecyrillic
ENCODING 1074
SWIDTH 666 0
DWIDTH 8 0
BBX 6 6 0 0
BITMAP
F0
88
F8
84
84
F8
ENDCHAR
STARTCHAR gecyrillic
ENCODING 1075
SWIDTH 666 0
DWIDTH 8 0
BBX 5 6 1 0
BITMAP
F8
80
80
80
80
80
ENDCHAR
STARTCHAR decyrillic
ENCODING 1076
SWIDTH 666 0
DWIDTH 8 0
BBX 7 8 0 -2
BITMAP
38
44
44
44
44
FE
82
82
ENDCHAR
STARTCHAR iecyrillic
ENCODING 1077
SWIDTH 666 0
DWIDTH 8 0
BBX 6 6 0 0
BITMAP
78
84
FC
80
84
78
ENDCHAR
STARTCHAR zhecyrillic
ENCODING 1078
SWIDTH 666 0
DWIDTH 8 0
BBX 7 6 0 0
BITMAP
92
92
7C
92
92
92
ENDCHAR
STARTCHAR zecyrillic
ENCODING 1079
SWIDTH 666 0
DWIDTH 8 0
BBX 6 6 0 0
BITMAP
78
84
38
04
84
78
ENDCHAR
STARTCHAR iicyrillic
ENCODING 1080
SWIDTH 666 0
DWIDTH 8 0
BBX 6 6 0 0
BITMAP
84
8C
94
A4
C4
84
ENDCHAR
STARTCHAR iishortcyrillic
ENCODING 1081
SWIDTH 666 0
DWIDTH 8 0
BBX 6 9 0 0
BITMAP
48
30
00
84
8C
94
A4
C4
84
ENDCHAR
STARTCHAR kacyrillic
ENCODING 1082
SWIDTH 666 0
DWIDTH 8 0
BBX 6 6 0 0
BITMAP
88
90
A0
D0
88
84
ENDCHAR
STARTCHAR elcyrillic
ENCODING 1083
SWIDTH 666 0
DWIDTH 8 0
BBX 6 6 0 0
BITMAP
3C
44
44
44
44
84
ENDCHAR
STARTCHAR emcyrillic
ENCODING 1084
SWIDTH 666 0
DWIDTH 8 0
BBX 7 6 0 0
BITMAP
82
C6
AA
AA
92
82
ENDCHAR
STARTCHAR encyrillic
ENCODING 1085
SWIDTH 666 0
DWIDTH 8 0
BBX 6 6 0 0
BITMAP
84
84
FC
84
84
84
ENDCHAR
STARTCHAR ocyrillic
ENCODING 1086
SWIDTH 666 0
DWIDTH 8 0
BBX 6 6 0 0
BITMAP
78
84
84
84
84
78
ENDCHAR
STARTCHAR pecyrillic
ENCODING 1087
SWIDTH 666 0
DWIDTH 8 0
BBX 6 6 0 0
BITMAP
FC
84
84
84
84
84
ENDCHAR
STARTCHAR ercyrillic
ENCODING 1088
SWIDTH 666 0
DWIDTH 8 0
BBX 6 8 0 -2
BITMAP
F8
84
84
84
84
F8
80
80
ENDCHAR
STARTCHAR escyrillic
ENCODING 1089
SWIDTH 666 0
DWIDTH 8 0
BBX 6 6 0 0
BITMAP
78
84
80
80
84
78
ENDCHAR
STARTCHAR tecyrillic
ENCODING 1090
SWIDTH 666 0
DWIDTH 8 0
BBX 5 6 0 0
BITMAP
F8
20
20
20
20
20
ENDCHAR
STARTCHAR ucyrillic
ENCODING 1091
SWIDTH 666 0
DWIDTH 8 0
BBX 6 8 0 -2
BITMAP
84
84
84
84
84
7C
08
F0
ENDCHAR
STARTCHAR efcyrillic
ENCODING 1092
SWIDTH 666 0
DWIDTH 8 0
BBX 7 10 0 -2
BITMAP
10
10
7C
92
92
92
92
7C
10
10
ENDCHAR
STARTCHAR khacyrillic
ENCODING 1093
SWIDTH 666 0
DWIDTH 8 0
BBX 6 6 0 0
BITMAP
84
48
30
30
48
84
ENDCHAR
STARTCHAR tsecyrillic
ENCODING 1094
SWIDTH 666 0
DWIDTH 8 0
BBX 7 8 0 -2
BITMAP
84
84
84
84
84
FE
02
02
ENDCHAR
STARTCHAR checyrillic
ENCODING 1095
SWIDTH 666 0
DWIDTH 8 0
BBX 6 6 0 0
BITMAP
84
84
84
7C
04
04
ENDCHAR
STARTCHAR shacyrillic
ENCODING 1096
SWIDTH 666 0
DWIDTH 8 0
BBX 7 6 0 0
BITMAP
92
92
92
92
92
FE
ENDCHAR
STARTCHAR shchacyrillic
ENCODING 1097
SWIDTH 666 0
DWIDTH 8 0
BBX 8 8 0 -2
BITMAP
92
92
92
92
92
FF
01
01
ENDCHAR
STARTCHAR hardsigncyrillic
ENCODING 1098
SWIDTH 666 0
DWIDTH 8 0
BBX 7 6 0 0
BITMAP
E0
20
3C
22
22
3C
ENDCHAR
STARTCHAR yericyrillic
ENCODING 1099
SWIDTH 666 0
DWIDTH 8 0
BBX 6 6 0 0
BITMAP
84
84
E4
94
94
E4
ENDCHAR
STARTCHAR softsigncyrillic
ENCODING 1100
SWIDTH 666 0
DWIDTH 8 0
BBX 5 6 0 0
BITMAP
80
80
F0
88
88
F0
ENDCHAR
STARTCHAR ereversedcyrillic
ENCODING 1101
SWIDTH 666 0
DWIDTH 8 0
BBX 6 6 0 0
BITMAP
78
84
3C
04
84
78
ENDCHAR
STARTCHAR iucyrillic
ENCODING 1102
SWIDTH 666 0
DWIDTH 8 0
BBX 6 6 0 0
BITMAP
98
A4
E4
A4
A4
98
ENDCHAR
STARTCHAR iacyrillic
ENCODING 1103
SWIDTH 666 0
DWIDTH 8 0
BBX 6 6 0 0
BITMAP
3C
44
44
3C
64
84
ENDCHAR
STARTCHAR iocyrillic
ENCODING 1105
SWIDTH 666 0
DWIDTH 8 0
BBX 6 9 0 0
BITMAP
48
48
00
78
84
FC
80
84
78
ENDCHAR
STARTCHAR uni2010
ENCODING 8208
SWIDTH 666 0
DWIDTH 8 0
BBX 5 1 0 3
BITMAP
F8
ENDCHAR
STARTCHAR emdash
ENCODING 8212
SWIDTH 666 0
DWIDTH 8 0
BBX 7 1 0 3
BITMAP
FE
ENDCHAR
STARTCHAR bullet
ENCODING 8226
SWIDTH 666 0
DWIDTH 8 0
BBX 5 5 1 1
BITMAP
70
F8
F8
F8
70
ENDCHAR
STARTCHAR guilsinglleft
ENCODING 8249
SWIDTH 666 0
DWIDTH 8 0
BBX 3 5 2 1
BITMAP
20
40
80
40
20
ENDCHAR
STARTCHAR guilsinglright
ENCODING 8250
SWIDTH 666 0
DWIDTH 8 0
BBX 3 5 2 1
BITMAP
80
40
20
40
80
ENDCHAR
STARTCHAR uni203E
ENCODING 8254
SWIDTH 666 0
DWIDTH 8 0
BBX 7 1 0 9
BITMAP
FE
ENDCHAR
STARTCHAR numero
ENCODING 8470
SWIDTH 666 0
DWIDTH 8 0
BBX 8 8 0 0
BITMAP
88
C8
A8
98
8A
8D
8A
8F
ENDCHAR
STARTCHAR arrowleft
ENCODING 8592
SWIDTH 666 0
DWIDTH 8 0
BBX 8 5 0 1
BITMAP
20
40
FF
40
20
ENDCHAR
STARTCHAR arrowup
ENCODING 8593
SWIDTH 666 0
DWIDTH 8 0
BBX 5 8 1 0
BITMAP
20
70
A8
20
20
20
20
20
ENDCHAR
STARTCHAR arrowright
ENCODING 8594
SWIDTH 666 0
DWIDTH 8 0
BBX 8 5 0 1
BITMAP
04
02
FF
02
04
ENDCHAR
STARTCHAR arrowdown
ENCODING 8595
SWIDTH 666 0
DWIDTH 8 0
BBX 5 8 1 0
BITMAP
20
20
20
20
20
A8
70
20
ENDCHAR
STARTCHAR carriagereturn
ENCODING 8629
SWIDTH 666 0
DWIDTH 8 0
BBX 6 8 1 0
BITMAP
04
04
04
24
64
FC
60
20
ENDCHAR
STARTCHAR emptyset
ENCODING 8709
SWIDTH 666 0
DWIDTH 8 0
BBX 7 7 0 0
BITMAP
3A
44
8A
92
A2
44
B8
ENDCHAR
STARTCHAR uni22EF
ENCODING 8943
SWIDTH 666 0
DWIDTH 8 0
BBX 5 1 1 3
BITMAP
A8
ENDCHAR
STARTCHAR scanline5.terminal.100
ENCODING 9472
SWIDTH 666 0
DWIDTH 8 0
BBX 8 1 0 3
BITMAP
FF
ENDCHAR
STARTCHAR uni2501
ENCODING 9473
SWIDTH 666 0
DWIDTH 8 0
BBX 6 3 0 3
BITMAP
FC
00
FC
ENDCHAR
STARTCHAR boxelement.vert.terminal.100
ENCODING 9474
SWIDTH 666 0
DWIDTH 8 0
BBX 1 12 3 -2
BITMAP
80
80
80
80
80
80
80
80
80
80
80
80
ENDCHAR
STARTCHAR uni2504
ENCODING 9476
SWIDTH 666 0
DWIDTH 8 0
BBX 8 1 0 3
BITMAP
DB
ENDCHAR
STARTCHAR uni2506
ENCODING 9478
SWIDTH 666 0
DWIDTH 8 0
BBX 1 11 3 -1
BITMAP
80
80
00
80
80
00
80
80
00
80
80
ENDCHAR
STARTCHAR uni2508
ENCODING 9480
SWIDTH 1000 0
DWIDTH 8 0
BBX 7 1 0 3
BITMAP
AA
ENDCHAR
STARTCHAR uni250A
ENCODING 9482
SWIDTH 666 0
DWIDTH 8 0
BBX 1 11 3 -1
BITMAP
80
00
80
00
80
00
80
00
80
00
80
ENDCHAR
STARTCHAR boxelement.ul.terminal.100
ENCODING 9484
SWIDTH 666 0
DWIDTH 8 0
BBX 5 6 3 -2
BITMAP
F8
80
80
80
80
80
ENDCHAR
STARTCHAR boxelement.ur.terminal.100
ENCODING 9488
SWIDTH 666 0
DWIDTH 8 0
BBX 4 6 0 -2
BITMAP
F0
10
10
10
10
10
ENDCHAR
STARTCHAR boxelement.ll.terminal.100
ENCODING 9492
SWIDTH 666 0
DWIDTH 8 0
BBX 5 7 3 3
BITMAP
80
80
80
80
80
80
F8
ENDCHAR
STARTCHAR boxelement.lr.terminal.100
ENCODING 9496
SWIDTH 666 0
DWIDTH 8 0
BBX 4 7 0 3
BITMAP
10
10
10
10
10
10
F0
ENDCHAR
STARTCHAR boxelement.ml.terminal.100
ENCODING 9500
SWIDTH 666 0
DWIDTH 8 0
BBX 5 12 3 -2
BITMAP
80
80
80
80
80
80
F8
80
80
80
80
80
ENDCHAR
STARTCHAR boxelement.mr.terminal.100
ENCODING 9508
SWIDTH 666 0
DWIDTH 8 0
BBX 4 12 0 -2
BITMAP
10
10
10
10
10
10
F0
10
10
10
10
10
ENDCHAR
STARTCHAR boxelement.mt.terminal.100
ENCODING 9516
SWIDTH 666 0
DWIDTH 8 0
BBX 8 6 0 -2
BITMAP
FF
10
10
10
10
10
ENDCHAR
STARTCHAR boxelement.mb.terminal.100
ENCODING 9524
SWIDTH 666 0
DWIDTH 8 0
BBX 8 8 0 3
BITMAP
10
10
10
10
10
10
10
FF
ENDCHAR
STARTCHAR boxelement.cross.terminal.100
ENCODING 9532
SWIDTH 666 0
DWIDTH 8 0
BBX 8 12 0 -2
BITMAP
10
10
10
10
10
10
FF
10
10
10
10
10
ENDCHAR
STARTCHAR uni256D
ENCODING 9581
SWIDTH 666 0
DWIDTH 8 0
BBX 5 6 3 -2
BITMAP
78
80
80
80
80
80
ENDCHAR
STARTCHAR uni256E
ENCODING 9582
SWIDTH 666 0
DWIDTH 8 0
BBX 4 6 0 -2
BITMAP
E0
10
10
10
10
10
ENDCHAR
STARTCHAR uni256F
ENCODING 9583
SWIDTH 666 0
DWIDTH 8 0
BBX 4 7 0 3
BITMAP
10
10
10
10
10
10
E0
ENDCHAR
STARTCHAR uni2570
ENCODING 9584
SWIDTH 666 0
DWIDTH 8 0
BBX 5 7 3 3
BITMAP
80
80
80
80
80
80
78
ENDCHAR
STARTCHAR uni2581
ENCODING 9601
SWIDTH 1000 0
DWIDTH 8 0
BBX 8 4 0 -2
BITMAP
FF
FF
FF
FF
ENDCHAR
STARTCHAR uni2582
ENCODING 9602
SWIDTH 1000 0
DWIDTH 8 0
BBX 8 6 0 -2
BITMAP
FF
FF
FF
FF
FF
FF
ENDCHAR
STARTCHAR uni2583
ENCODING 9603
SWIDTH 1000 0
DWIDTH 8 0
BBX 8 7 0 -2
BITMAP
FF
FF
FF
FF
FF
FF
FF
ENDCHAR
STARTCHAR dnblock
ENCODING 9604
SWIDTH 1000 0
DWIDTH 8 0
BBX 8 8 0 -2
BITMAP
FF
FF
FF
FF
FF
FF
FF
FF
ENDCHAR
STARTCHAR uni2585
ENCODING 9605
SWIDTH 1000 0
DWIDTH 8 0
BBX 8 9 0 -2
BITMAP
FF
FF
FF
FF
FF
FF
FF
FF
FF
ENDCHAR
STARTCHAR uni2586
ENCODING 9606
SWIDTH 1000 0
DWIDTH 8 0
BBX 8 10 0 -2
BITMAP
FF
FF
FF
FF
FF
FF
FF
FF
FF
FF
ENDCHAR
STARTCHAR uni2587
ENCODING 9607
SWIDTH 1000 0
DWIDTH 8 0
BBX 8 11 0 -2
BITMAP
FF
FF
FF
FF
FF
FF
FF
FF
FF
FF
FF
ENDCHAR
STARTCHAR block
ENCODING 9608
SWIDTH 666 0
DWIDTH 8 0
BBX 8 12 0 -2
BITMAP
FF
FF
FF
FF
FF
FF
FF
FF
FF
FF
FF
FF
ENDCHAR
STARTCHAR uni25C8
ENCODING 9672
SWIDTH 666 0
DWIDTH 8 0
BBX 8 7 0 1
BITMAP
18
24
5A
BD
5A
24
18
ENDCHAR
STARTCHAR H18533
ENCODING 9679
SWIDTH 666 0
DWIDTH 8 0
BBX 8 8 0 0
BITMAP
3C
7E
FF
FF
FF
FF
7E
3C
ENDCHAR
STARTCHAR uni262B
ENCODING 9771
SWIDTH 666 0
DWIDTH 8 0
BBX 8 11 0 -2
BITMAP
7C
82
42
1C
10
28
5A
81
89
89
46
ENDCHAR
STARTCHAR uni2630
ENCODING 9776
SWIDTH 666 0
DWIDTH 8 0
BBX 6 7 1 0
BITMAP
FC
00
00
FC
00
00
FC
ENDCHAR
STARTCHAR sun
ENCODING 9788
SWIDTH 666 0
DWIDTH 8 0
BBX 7 7 1 0
BITMAP
92
7C
44
C6
44
7C
92
ENDCHAR
STARTCHAR uni2702
ENCODING 9986
SWIDTH 666 0
DWIDTH 8 0
BBX 8 5 0 2
BITMAP
C3
CC
30
CC
C3
ENDCHAR
STARTCHAR uni2713
ENCODING 10003
SWIDTH 666 0
DWIDTH 8 0
BBX 8 6 0 1
BITMAP
03
06
8C
D8
70
20
ENDCHAR
STARTCHAR uni2717
ENCODING 10007
SWIDTH 666 0
DWIDTH 8 0
BBX 8 8 0 -1
BITMAP
23
36
1C
1C
36
63
C0
80
ENDCHAR
STARTCHAR uni276F
ENCODING 10095
SWIDTH 666 0
DWIDTH 8 0
BBX 6 7 1 0
BITMAP
E0
70
38
1C
38
70
E0
ENDCHAR
STARTCHAR uni279C
ENCODING 10140
SWIDTH 666 0
DWIDTH 8 0
BBX 7 6 0 1
BITMAP
18
0C
FE
FE
0C
18
ENDCHAR
STARTCHAR uniE0A0
ENCODING 57504
SWIDTH 666 0
DWIDTH 8 0
BBX 7 12 0 -2
BITMAP
C0
C0
CC
DE
CC
CC
D8
B0
60
C0
C0
C0
ENDCHAR
STARTCHAR uniE0A1
ENCODING 57505
SWIDTH 666 0
DWIDTH 8 0
BBX 7 10 0 -1
BITMAP
80
80
80
80
F8
22
32
2A
26
22
ENDCHAR
STARTCHAR uniE0A2
ENCODING 57506
SWIDTH 666 0
DWIDTH 8 0
BBX 7 10 0 -1
BITMAP
38
44
44
44
FE
EE
EE
EE
CE
7C
ENDCHAR
STARTCHAR uniE0B0
ENCODING 57520
SWIDTH 666 0
DWIDTH 8 0
BBX 6 12 0 -2
BITMAP
80
C0
E0
F0
F8
FC
FC
F8
F0
E0
C0
80
ENDCHAR
STARTCHAR uniE0B1
ENCODING 57521
SWIDTH 666 0
DWIDTH 8 0
BBX 6 12 0 -2
BITMAP
80
40
20
10
08
04
04
08
10
20
40
80
ENDCHAR
STARTCHAR uniE0B2
ENCODING 57522
SWIDTH 666 0
DWIDTH 8 0
BBX 6 12 2 -2
BITMAP
04
0C
1C
3C
7C
FC
FC
7C
3C
1C
0C
04
ENDCHAR
STARTCHAR uniE0B3
ENCODING 57523
SWIDTH 666 0
DWIDTH 8 0
BBX 6 12 2 -2
BITMAP
04
08
10
20
40
80
80
40
20
10
08
04
ENDCHAR
ENDFONT
